HIERARCHY
ROOT SpineBase
{
  OFFSET 0.000000 0.000000 0.000000
  CHANNELS 6 Xposition Yposition Zposition Zrotation Xrotation Yrotation
  JOINT SpineMid
  {
    OFFSET -0.000000 28.756342 0.000000
    CHANNELS 3 Zrotation Xrotation Yrotation
    JOINT SpineShoulder
    {
      OFFSET 0.117935 21.352337 -0.892153
      CHANNELS 3 Zrotation Xrotation Yrotation
      JOINT Neck
      {
        OFFSET 0.041530 7.056637 -0.492983
        CHANNELS 3 Zrotation Xrotation Yrotation
        JOINT Head
        {
          OFFSET 2.286627 13.687934 -0.461597
          CHANNELS 3 Zrotation Xrotation Yrotation
          End Site
          {
            OFFSET 0 0 0
          }
        }
      }
      JOINT ShoulderLeft
      {
        OFFSET -13.358143 -4.153981 -6.664281
        CHANNELS 3 Zrotation Xrotation Yrotation
        JOINT ElbowLeft
        {
          OFFSET -3.701092 -23.090899 -0.557419
          CHANNELS 3 Zrotation Xrotation Yrotation
          JOINT WristLeft
          {
            OFFSET 11.376816 -16.944754 -6.874003
            CHANNELS 3 Zrotation Xrotation Yrotation
            JOINT HandLeft
            {
              OFFSET 4.208119 -5.555172 2.239540
              CHANNELS 3 Zrotation Xrotation Yrotation
              JOINT HandTipLeft
              {
                OFFSET 6.934678 -7.183360 -3.879984
                CHANNELS 3 Zrotation Xrotation Yrotation
                End Site
                {
                  OFFSET 0 0 0
                }
              }
              JOINT ThumbLeft
              {
                OFFSET 4.696338 6.275938 -3.108960
                CHANNELS 3 Zrotation Xrotation Yrotation
                End Site
                {
                  OFFSET 0 0 0
                }
              }
            }
          }
        }
      }
      JOINT ShoulderRight
      {
        OFFSET 16.967947 -4.157554 6.117512
        CHANNELS 3 Zrotation Xrotation Yrotation
        JOINT ElbowRight
        {
          OFFSET 2.744177 -26.101708 0.755993
          CHANNELS 3 Zrotation Xrotation Yrotation
          JOINT WristRight
          {
            OFFSET 1.724783 -19.002774 -10.295510
            CHANNELS 3 Zrotation Xrotation Yrotation
            JOINT HandRight
            {
              OFFSET -3.114251 -2.249071 -9.216427
              CHANNELS 3 Zrotation Xrotation Yrotation
              JOINT HandTipRight
              {
                OFFSET -2.212280 -5.321724 -6.093363
                CHANNELS 3 Zrotation Xrotation Yrotation
                End Site
                {
                  OFFSET 0 0 0
                }
              }
              JOINT ThumbRight
              {
                OFFSET -2.785688 3.014630 -2.605165
                CHANNELS 3 Zrotation Xrotation Yrotation
                End Site
                {
                  OFFSET 0 0 0
                }
              }
            }
          }
        }
      }
    }
  }
  JOINT HipLeft
  {
    OFFSET -6.472189 0.376730 -5.780184
    CHANNELS 3 Zrotation Xrotation Yrotation
    JOINT KneeLeft
    {
      OFFSET -4.390794 -29.460848 5.380289
      CHANNELS 3 Zrotation Xrotation Yrotation
      JOINT AnkleLeft
      {
        OFFSET -3.808262 -39.271489 8.606499
        CHANNELS 3 Zrotation Xrotation Yrotation
        JOINT FootLeft
        {
          OFFSET 3.167543 -1.399542 -10.194156
          CHANNELS 3 Zrotation Xrotation Yrotation
          End Site
          {
            OFFSET 0 0 0
          }
        }
      }
    }
  }
  JOINT HipRight
  {
    OFFSET 5.880796 0.171738 -0.885960
    CHANNELS 3 Zrotation Xrotation Yrotation
    JOINT KneeRight
    {
      OFFSET 10.410427 -22.867316 -18.509192
      CHANNELS 3 Zrotation Xrotation Yrotation
      JOINT AnkleRight
      {
        OFFSET -10.442889 -32.971905 41.460378
        CHANNELS 3 Zrotation Xrotation Yrotation
        JOINT FootRight
        {
          OFFSET 1.553960 -7.057862 -1.986221
          CHANNELS 3 Zrotation Xrotation Yrotation
          End Site
          {
            OFFSET 0 0 0
          }
        }
      }
    }
  }
}
MOTION
Frames: 12
Frame Time: 0.033333
41.858544 60.540549 392.881599 21.950581 -17.146829 34.156807 2.192200 -0.011487 -30.236751 -0.413807 -0.548903 0.806164 33.498558 14.278981 -13.292089 0.000000 0.000000 0.000000 119.493574 61.698534 -146.164423 26.051430 -1.927392 61.676924 -10.132962 -13.814523 44.204315 -8.798547 -40.832024 -53.525261 0.000000 0.000000 0.000000 0.000000 0.000000 0.000000 87.783607 42.854844 -60.697436 12.514552 68.666445 -79.389987 93.240316 -78.925062 39.604020 89.735562 10.402305 -69.565412 0.000000 0.000000 0.000000 0.000000 0.000000 0.000000 -10.186652 58.978316 -35.994196 7.705335 -20.498318 4.023389 25.836062 18.228187 -18.114649 0.000000 0.000000 0.000000 -52.779676 -17.273426 -45.701717 -83.471300 84.416153 98.272233 8.366095 19.029935 9.901676 0.000000 0.000000 0.000000
42.554814 58.443196 392.965917 23.542159 -15.439570 36.705521 1.588718 -0.120308 -32.703311 -0.602570 -0.402607 0.820489 33.223792 11.161546 -10.890552 0.000000 0.000000 0.000000 124.661570 75.269921 -158.096203 16.746238 -4.923347 58.802224 -1.203303 -7.747981 41.983479 -14.952556 -44.681342 -53.338783 0.000000 0.000000 0.000000 0.000000 0.000000 0.000000 86.689457 57.098180 -72.339267 -54.052320 65.623290 -18.308167 73.528053 -66.740702 10.935051 78.234678 16.570252 -61.108182 0.000000 0.000000 0.000000 0.000000 0.000000 0.000000 -7.751477 60.357992 -41.340171 7.845609 -21.017936 4.137379 18.437117 0.123796 -15.513218 0.000000 0.000000 0.000000 -58.494965 -16.858208 -46.866197 -104.003195 85.327981 119.186829 2.873966 8.369898 10.542177 0.000000 0.000000 0.000000
43.069355 56.819294 392.684019 24.702199 -13.789601 37.226227 0.637335 -0.309443 -33.163563 -0.387138 -0.211571 0.779395 33.610808 11.968895 -11.621974 0.000000 0.000000 0.000000 148.761329 86.661071 173.522575 9.537088 -6.136994 55.438359 3.893702 0.768548 41.518538 -17.527273 -46.726105 -52.065932 0.000000 0.000000 0.000000 0.000000 0.000000 0.000000 69.660309 73.915572 -70.475364 -66.899382 39.832317 -3.235650 62.141052 -53.374791 -4.294097 15.705298 42.605020 -19.112707 0.000000 0.000000 0.000000 0.000000 0.000000 0.000000 -7.448576 60.576230 -43.346008 7.156348 -21.407596 3.831613 13.811829 -12.255032 -12.043909 0.000000 0.000000 0.000000 -64.339000 -17.846456 -45.682512 -150.492640 86.306107 166.979160 -4.784656 -10.684353 8.159476 0.000000 0.000000 0.000000
43.601224 55.872902 392.404259 25.570631 -12.827237 36.923208 -0.458354 -0.003635 -32.770948 0.117261 0.043393 0.689502 35.826828 15.065198 -14.725109 0.000000 0.000000 0.000000 -63.683365 84.044974 24.382546 1.370699 -5.724766 52.297255 2.726508 10.007400 39.964621 -19.840805 -55.979849 -52.882462 0.000000 0.000000 0.000000 0.000000 0.000000 0.000000 -11.403772 87.138810 -2.557130 -64.150250 8.614526 -9.992008 57.029497 -33.947136 -13.593454 -8.389623 -5.156009 10.738477 0.000000 0.000000 0.000000 0.000000 0.000000 0.000000 -6.945398 60.305590 -44.190487 6.219725 -22.193583 3.524038 10.426835 -20.022434 -6.390760 0.000000 0.000000 0.000000 -68.949105 -18.910951 -42.689440 151.683090 85.339304 -133.447222 -4.175933 -11.749630 8.032254 0.000000 0.000000 0.000000
44.396835 55.258757 392.064444 27.270595 -12.207757 37.348931 -1.359263 0.361660 -32.952614 0.460102 0.243644 0.647713 35.011994 19.235477 -18.034068 0.000000 0.000000 0.000000 -63.501030 79.291923 21.953131 -2.337286 -5.644724 51.497869 0.792332 12.116815 34.947071 -6.182724 -69.582766 -42.725819 0.000000 0.000000 0.000000 0.000000 0.000000 0.000000 -101.561378 75.113675 74.042261 -60.705856 -21.000761 -22.557323 51.105414 -18.143891 -9.602982 -4.201756 -1.351770 -2.070928 0.000000 0.000000 0.000000 0.000000 0.000000 0.000000 -6.104694 61.874280 -46.323482 5.660735 -23.424563 3.304384 9.530200 -24.291938 -3.559027 0.000000 0.000000 0.000000 -73.155117 -18.902040 -38.432518 122.158377 81.927240 -102.426047 -4.668177 -19.714358 6.310797 0.000000 0.000000 0.000000
44.867636 55.797790 391.547674 27.804834 -11.225247 35.758958 -1.938186 0.690816 -31.487992 0.664771 0.442530 0.593744 37.442801 21.950637 -21.133567 0.000000 0.000000 0.000000 -59.121107 78.693200 17.389895 -4.549297 -7.837207 50.305795 -2.998199 18.235497 34.626758 -1.850191 -70.456562 -36.648294 0.000000 0.000000 0.000000 0.000000 0.000000 0.000000 -99.343207 64.775259 62.805402 -51.422371 -35.173849 -23.768389 47.779747 -22.906344 -3.747249 -7.450285 15.341994 -5.404566 0.000000 0.000000 0.000000 0.000000 0.000000 0.000000 -8.911128 59.515764 -43.184779 3.341918 -22.336516 2.129697 9.938534 -24.891516 2.849213 0.000000 0.000000 0.000000 -75.053822 -20.221750 -34.796428 106.341092 78.524330 -85.525177 -0.816357 -16.299898 6.928547 0.000000 0.000000 0.000000
45.207238 56.964741 390.915847 28.143870 -10.033019 32.195358 -1.756055 0.633922 -28.248956 0.493752 0.522184 0.602684 39.784381 23.427713 -23.360442 0.000000 0.000000 0.000000 -53.438705 81.513398 11.791746 -7.971564 -11.897711 49.033088 -9.893711 23.720844 29.896129 0.327886 -49.553168 -23.213294 0.000000 0.000000 0.000000 0.000000 0.000000 0.000000 -95.846209 59.522111 54.427118 -42.550995 -38.346284 -18.609788 46.381314 -31.646478 0.092486 -7.992190 24.908866 -6.789381 0.000000 0.000000 0.000000 0.000000 0.000000 0.000000 -16.885284 54.324375 -34.733362 1.428537 -18.900200 1.123177 10.869112 -20.864254 11.839631 0.000000 0.000000 0.000000 -75.432750 -23.022920 -31.896488 97.542798 76.047551 -76.119490 7.852340 4.348184 9.073815 0.000000 0.000000 0.000000
45.645039 58.429750 390.440707 27.958227 -8.618028 26.468012 -1.879535 0.470810 -22.924135 0.731784 0.378018 0.635128 43.187707 24.753151 -25.933502 0.000000 0.000000 0.000000 -54.747001 77.170524 11.768464 -7.296973 -9.414971 50.224716 -11.533826 27.930320 34.600426 0.989854 -54.763445 -23.007527 0.000000 0.000000 0.000000 0.000000 0.000000 0.000000 -86.692311 58.827788 45.903077 -41.464172 -30.379955 -10.681172 44.515269 -38.465829 9.274800 -5.396395 34.886360 -11.400251 0.000000 0.000000 0.000000 0.000000 0.000000 0.000000 -26.432597 46.850495 -24.514622 0.993549 -14.365307 0.783216 10.933571 -19.462520 16.998152 0.000000 0.000000 0.000000 -73.848311 -26.983437 -28.248439 84.971411 73.331118 -63.708327 18.295486 28.746732 7.623629 0.000000 0.000000 0.000000
45.472094 59.753588 389.991454 26.415841 -6.935856 21.537871 -1.445389 0.568580 -18.722503 0.701137 0.294917 0.640404 45.318733 24.402124 -25.599096 0.000000 0.000000 0.000000 -47.686491 74.643313 5.691812 -8.587567 -8.996370 50.029440 -1.523715 21.961494 41.227081 -29.178231 -34.445729 -51.327815 0.000000 0.000000 0.000000 0.000000 0.000000 0.000000 -68.287699 60.028428 33.298818 -38.439169 -17.246093 -1.733266 40.558723 -32.506911 -2.579672 -25.394647 10.525418 13.165452 0.000000 0.000000 0.000000 0.000000 0.000000 0.000000 -29.962818 38.935122 -19.051195 0.119176 -10.247727 0.313927 10.480054 -26.511855 19.913624 0.000000 0.000000 0.000000 -70.951513 -30.764219 -28.302683 75.592178 73.380407 -55.145279 26.330685 42.517772 3.836192 0.000000 0.000000 0.000000
44.921908 60.211708 389.858495 23.918498 -5.702474 13.774933 -0.715911 1.094172 -11.705464 0.387711 0.179414 0.623469 46.443427 23.834344 -24.032444 0.000000 0.000000 0.000000 -32.718893 73.904594 -5.375612 -10.392251 -9.823588 48.266107 0.831155 26.015264 53.682126 -41.974520 -29.022068 -66.646382 0.000000 0.000000 0.000000 0.000000 0.000000 0.000000 -44.507858 57.571529 17.666145 -39.857925 0.754792 6.385811 34.187578 -37.847747 -3.535196 -33.040407 -4.004706 18.904954 0.000000 0.000000 0.000000 0.000000 0.000000 0.000000 -30.570351 30.849916 -12.372184 -1.276410 -8.363954 -0.181116 10.034129 -27.149041 24.312971 0.000000 0.000000 0.000000 -64.874572 -36.555035 -25.774984 63.623430 72.859265 -44.495143 30.285115 47.735872 1.508704 0.000000 0.000000 0.000000
44.126044 61.430228 389.582345 21.078089 -3.994759 7.096628 -0.401594 1.553224 -5.726199 0.084487 -0.078597 0.599924 45.627143 22.307110 -20.550160 0.000000 0.000000 0.000000 -12.172233 73.416633 -20.023064 -12.476367 -11.434358 45.567623 12.064509 19.479716 56.879714 -44.588522 -15.554739 -66.921647 0.000000 0.000000 0.000000 0.000000 0.000000 0.000000 -20.719733 48.047551 4.211052 -44.471618 18.515107 13.040190 27.668628 -41.725028 -6.083987 -40.235631 -6.264924 23.802208 0.000000 0.000000 0.000000 0.000000 0.000000 0.000000 -29.502049 23.593723 -7.267091 -1.668822 -7.287922 -0.278175 9.218209 -23.930663 26.553075 0.000000 0.000000 0.000000 -58.052785 -41.587748 -23.391948 53.308697 72.724433 -35.429219 29.143303 45.942039 2.343809 0.000000 0.000000 0.000000
43.217482 63.537106 389.119754 18.310428 -1.908779 4.653507 -0.371469 1.818723 -3.867902 0.023666 -0.121414 0.525497 41.793641 18.634223 -14.634908 0.000000 0.000000 0.000000 21.261637 73.350884 -45.453725 -18.985425 -16.487650 40.445012 16.748734 15.526387 57.287734 -64.088548 -16.964186 -83.823514 0.000000 0.000000 0.000000 0.000000 0.000000 0.000000 -6.349418 41.505780 -0.749627 -45.148618 28.228913 12.849071 19.722416 -42.544210 -8.540567 -38.531013 -10.945737 22.247477 0.000000 0.000000 0.000000 0.000000 0.000000 0.000000 -26.123372 19.395710 -6.245158 -2.202676 -7.565609 -0.404911 8.488684 -18.457445 26.434119 0.000000 0.000000 0.000000 -53.403606 -44.172097 -24.901056 44.471576 74.134438 -27.587450 25.016570 39.424725 4.796646 0.000000 0.000000 0.000000
